# xmcd CD database file
#
# Track frame offsets:
#	150
#	20397
#	33869
#	48678
#	65127
#	87895
#	106916
#	129479
#	153364
#	172977
#
# Disc length: 2662 seconds
#
# Revision: 2
# Processed by: cddbd v1.5.2PL0 Copyright (c) Steve Scherf et al.
# Submitted via: CDex 1.70beta2
#
DISCID=7a0a640a
DTITLE=Ken Foster - Sunset Rider
DYEAR=2001
DGENRE=Country
TTITLE0=Wandering aimlessly
TTITLE1=North American Girl
TTITLE2=She's Crying
TTITLE3=Raining again
TTITLE4=Listen to me
TTITLE5=Sunset Rider
TTITLE6=River of life
TTITLE7=Better place to stand
TTITLE8=Why I try
TTITLE9=Wandering aimlessly (unplugged)
EXTD=YEAR: 2001
EXTT0=
EXTT1=
EXTT2=
EXTT3=
EXTT4=
EXTT5=
EXTT6=
EXTT7=
EXTT8=
EXTT9=
PLAYORDER=
